<?xml version="1.0" standalone="no"?>
<!DOCTYPE svg PUBLIC "-//W3C//DTD SVG 20010904//EN"
 "http://www.w3.org/TR/2001/REC-SVG-20010904/DTD/svg10.dtd">
<svg version="1.0" xmlns="http://www.w3.org/2000/svg"
 width="62.000000pt" height="73.000000pt" viewBox="0 0 62.000000 73.000000"
 preserveAspectRatio="xMidYMid meet">

<g transform="translate(0.000000,73.000000) scale(0.100000,-0.100000)"
fill="#000000" stroke="none">
<path d="M114 628 c-40 -32 -77 -194 -54 -237 22 -41 84 -24 120 34 33 54 19
62 -17 11 -24 -34 -39 -46 -58 -46 -14 0 -28 7 -32 16 -11 29 24 175 48 200
33 35 99 31 99 -7 0 -17 8 -19 69 -19 65 0 70 2 73 23 2 17 11 23 36 25 56 6
85 -34 102 -141 12 -77 7 -97 -26 -97 -17 0 -33 13 -56 45 -36 51 -57 51 -26
0 40 -68 109 -89 128 -39 11 29 -2 137 -24 188 -24 57 -33 60 -203 61 -135 0
-159 -2 -179 -17z"/>
<path d="M136 574 c-17 -12 -17 -14 -2 -29 15 -15 17 -15 32 -1 13 14 13 18 2
30 -12 11 -17 11 -32 0z"/>
<path d="M440 560 c0 -5 5 -10 11 -10 5 0 7 5 4 10 -3 6 -8 10 -11 10 -2 0 -4
-4 -4 -10z"/>
<path d="M225 500 c-8 -14 3 -30 21 -30 8 0 14 9 14 20 0 21 -24 28 -35 10z"/>
<path d="M314 499 c-9 -15 11 -33 30 -26 9 4 13 13 10 22 -7 17 -30 20 -40 4z"/>
<path d="M245 200 c0 -38 4 -50 15 -50 12 0 14 11 12 50 -5 67 -27 67 -27 0z"/>
<path d="M350 240 c0 -6 -11 -15 -25 -20 -19 -7 -25 -17 -25 -40 0 -27 3 -30
30 -30 29 0 30 1 30 50 0 28 -2 50 -5 50 -3 0 -5 -5 -5 -10z m-6 -63 c-7 -19
-20 -22 -29 -7 -9 15 16 43 27 32 5 -5 6 -16 2 -25z"/>
<path d="M58 216 c-6 -14 -8 -32 -5 -41 7 -18 46 -35 65 -28 15 6 16 53 1 53
-6 0 -8 -9 -4 -20 5 -15 2 -20 -14 -20 -24 0 -37 35 -20 56 7 9 21 13 31 11
10 -3 18 -1 18 4 0 5 -14 9 -30 9 -23 0 -33 -6 -42 -24z"/>
<path d="M161 202 c-13 -25 5 -52 34 -52 15 0 26 7 30 20 13 41 -44 70 -64 32z
m46 -8 c8 -21 -13 -42 -28 -27 -13 13 -5 43 11 43 6 0 13 -7 17 -16z"/>
<path d="M392 208 c-28 -28 5 -79 37 -59 9 6 6 10 -11 16 -23 8 -22 8 5 12 20
3 27 9 23 20 -3 8 -6 17 -6 19 0 9 -37 3 -48 -8z m33 -8 c3 -5 -1 -10 -10 -10
-9 0 -13 5 -10 10 3 6 8 10 10 10 2 0 7 -4 10 -10z"/>
<path d="M470 186 c0 -42 17 -49 22 -8 4 33 22 32 26 -3 5 -37 24 -30 20 8 -3
28 -7 32 -35 35 -32 3 -33 2 -33 -32z"/>
</g>
</svg>
