<?xml version="1.0" standalone="no"?>
<!DOCTYPE svg PUBLIC "-//W3C//DTD SVG 20010904//EN"
 "http://www.w3.org/TR/2001/REC-SVG-20010904/DTD/svg10.dtd">
<svg version="1.0" xmlns="http://www.w3.org/2000/svg"
 width="74.000000pt" height="65.000000pt" viewBox="0 0 74.000000 65.000000"
 preserveAspectRatio="xMidYMid meet">

<g transform="translate(0.000000,65.000000) scale(0.100000,-0.100000)"
fill="#000000" stroke="none">
<path d="M157 522 c-13 -14 -17 -39 -17 -110 0 -99 11 -122 55 -122 15 0 36
-14 58 -40 34 -40 34 -40 52 -20 27 29 45 25 85 -21 l35 -41 30 41 c24 32 37
41 61 41 16 0 35 5 42 12 16 16 16 200 0 216 -7 7 -34 12 -61 12 -40 0 -54 5
-73 25 -22 24 -28 25 -137 25 -98 0 -116 -3 -130 -18z m258 -107 l0 -100 -32
-3 c-22 -2 -42 -15 -64 -40 l-32 -36 -32 37 c-24 28 -40 37 -64 37 l-31 0 0
98 c0 54 3 102 7 106 4 3 61 5 127 4 l121 -3 0 -100z m130 54 c4 -5 7 -45 7
-87 0 -118 2 -112 -33 -112 -24 0 -40 -9 -64 -37 l-32 -37 -40 42 c-22 23 -38
44 -35 47 3 3 17 5 31 5 48 0 54 12 53 96 0 43 2 82 4 86 8 12 102 10 109 -3z"/>
<path d="M202 419 c2 -6 8 -10 13 -10 5 0 11 4 13 10 2 6 -4 11 -13 11 -9 0
-15 -5 -13 -11z"/>
<path d="M272 419 c2 -6 8 -10 13 -10 5 0 11 4 13 10 2 6 -4 11 -13 11 -9 0
-15 -5 -13 -11z"/>
<path d="M342 419 c2 -6 8 -10 13 -10 5 0 11 4 13 10 2 6 -4 11 -13 11 -9 0
-15 -5 -13 -11z"/>
<path d="M480 375 c0 -8 7 -15 15 -15 8 0 15 7 15 15 0 8 -7 15 -15 15 -8 0
-15 -7 -15 -15z"/>
</g>
</svg>
